<mxfile host="Electron" modified="2025-04-01T07:12:36.759Z" agent="Mozilla/5.0 (Windows NT 10.0; Win64; x64) AppleWebKit/537.36 (KHTML, like Gecko) draw.io/21.7.5 Chrome/114.0.5735.289 Electron/25.8.1 Safari/537.36" etag="ThZikg3n1hEuj0Oh59iC" version="21.7.5" type="device">
  <diagram name="PÃ¡gina-1" id="PKKSSSAn-mPPjpu7_1_G">
    <mxGraphModel dx="893" dy="973" grid="1" gridSize="10" guides="1" tooltips="1" connect="1" arrows="1" fold="1" page="1" pageScale="1" pageWidth="1169" pageHeight="827" math="0" shadow="0">
      <root>
        <mxCell id="0" />
        <mxCell id="1" parent="0" />
        <mxCell id="zWUjRtRSciI2-0Wgb_t_-1" value=":Sistema" style="shape=umlLifeline;perimeter=lifelinePerimeter;whiteSpace=wrap;html=1;container=1;dropTarget=0;collapsible=0;recursiveResize=0;outlineConnect=0;portConstraint=eastwest;newEdgeStyle={&quot;curved&quot;:0,&quot;rounded&quot;:0};" vertex="1" parent="1">
          <mxGeometry x="750" y="114" width="100" height="1036" as="geometry" />
        </mxCell>
        <mxCell id="zWUjRtRSciI2-0Wgb_t_-5" value="" style="html=1;points=[[0,0,0,0,5],[0,1,0,0,-5],[1,0,0,0,5],[1,1,0,0,-5]];perimeter=orthogonalPerimeter;outlineConnect=0;targetShapes=umlLifeline;portConstraint=eastwest;newEdgeStyle={&quot;curved&quot;:0,&quot;rounded&quot;:0};" vertex="1" parent="zWUjRtRSciI2-0Wgb_t_-1">
          <mxGeometry x="45" y="86" width="10" height="80" as="geometry" />
        </mxCell>
        <mxCell id="zWUjRtRSciI2-0Wgb_t_-12" value="" style="html=1;points=[[0,0,0,0,5],[0,1,0,0,-5],[1,0,0,0,5],[1,1,0,0,-5]];perimeter=orthogonalPerimeter;outlineConnect=0;targetShapes=umlLifeline;portConstraint=eastwest;newEdgeStyle={&quot;curved&quot;:0,&quot;rounded&quot;:0};" vertex="1" parent="zWUjRtRSciI2-0Wgb_t_-1">
          <mxGeometry x="45" y="220" width="10" height="80" as="geometry" />
        </mxCell>
        <mxCell id="zWUjRtRSciI2-0Wgb_t_-18" value="" style="html=1;points=[[0,0,0,0,5],[0,1,0,0,-5],[1,0,0,0,5],[1,1,0,0,-5]];perimeter=orthogonalPerimeter;outlineConnect=0;targetShapes=umlLifeline;portConstraint=eastwest;newEdgeStyle={&quot;curved&quot;:0,&quot;rounded&quot;:0};" vertex="1" parent="zWUjRtRSciI2-0Wgb_t_-1">
          <mxGeometry x="45" y="356" width="10" height="80" as="geometry" />
        </mxCell>
        <mxCell id="zWUjRtRSciI2-0Wgb_t_-22" value="" style="html=1;points=[[0,0,0,0,5],[0,1,0,0,-5],[1,0,0,0,5],[1,1,0,0,-5]];perimeter=orthogonalPerimeter;outlineConnect=0;targetShapes=umlLifeline;portConstraint=eastwest;newEdgeStyle={&quot;curved&quot;:0,&quot;rounded&quot;:0};" vertex="1" parent="zWUjRtRSciI2-0Wgb_t_-1">
          <mxGeometry x="45" y="486" width="10" height="80" as="geometry" />
        </mxCell>
        <mxCell id="zWUjRtRSciI2-0Wgb_t_-2" value="" style="shape=umlLifeline;perimeter=lifelinePerimeter;whiteSpace=wrap;html=1;container=1;dropTarget=0;collapsible=0;recursiveResize=0;outlineConnect=0;portConstraint=eastwest;newEdgeStyle={&quot;curved&quot;:0,&quot;rounded&quot;:0};participant=umlActor;" vertex="1" parent="1">
          <mxGeometry x="430" y="114" width="20" height="1036" as="geometry" />
        </mxCell>
        <mxCell id="zWUjRtRSciI2-0Wgb_t_-4" value="" style="html=1;points=[[0,0,0,0,5],[0,1,0,0,-5],[1,0,0,0,5],[1,1,0,0,-5]];perimeter=orthogonalPerimeter;outlineConnect=0;targetShapes=umlLifeline;portConstraint=eastwest;newEdgeStyle={&quot;curved&quot;:0,&quot;rounded&quot;:0};" vertex="1" parent="zWUjRtRSciI2-0Wgb_t_-2">
          <mxGeometry x="5" y="86" width="10" height="80" as="geometry" />
        </mxCell>
        <mxCell id="zWUjRtRSciI2-0Wgb_t_-11" value="" style="html=1;points=[[0,0,0,0,5],[0,1,0,0,-5],[1,0,0,0,5],[1,1,0,0,-5]];perimeter=orthogonalPerimeter;outlineConnect=0;targetShapes=umlLifeline;portConstraint=eastwest;newEdgeStyle={&quot;curved&quot;:0,&quot;rounded&quot;:0};" vertex="1" parent="zWUjRtRSciI2-0Wgb_t_-2">
          <mxGeometry x="5" y="220" width="10" height="80" as="geometry" />
        </mxCell>
        <mxCell id="zWUjRtRSciI2-0Wgb_t_-15" value="" style="html=1;points=[[0,0,0,0,5],[0,1,0,0,-5],[1,0,0,0,5],[1,1,0,0,-5]];perimeter=orthogonalPerimeter;outlineConnect=0;targetShapes=umlLifeline;portConstraint=eastwest;newEdgeStyle={&quot;curved&quot;:0,&quot;rounded&quot;:0};" vertex="1" parent="zWUjRtRSciI2-0Wgb_t_-2">
          <mxGeometry x="5" y="356" width="10" height="80" as="geometry" />
        </mxCell>
        <mxCell id="zWUjRtRSciI2-0Wgb_t_-21" value="" style="html=1;points=[[0,0,0,0,5],[0,1,0,0,-5],[1,0,0,0,5],[1,1,0,0,-5]];perimeter=orthogonalPerimeter;outlineConnect=0;targetShapes=umlLifeline;portConstraint=eastwest;newEdgeStyle={&quot;curved&quot;:0,&quot;rounded&quot;:0};" vertex="1" parent="zWUjRtRSciI2-0Wgb_t_-2">
          <mxGeometry x="5" y="486" width="10" height="80" as="geometry" />
        </mxCell>
        <mxCell id="zWUjRtRSciI2-0Wgb_t_-3" value="Empleado" style="text;html=1;strokeColor=none;fillColor=none;align=center;verticalAlign=middle;whiteSpace=wrap;rounded=0;" vertex="1" parent="1">
          <mxGeometry x="410" y="160" width="60" height="30" as="geometry" />
        </mxCell>
        <mxCell id="zWUjRtRSciI2-0Wgb_t_-6" value="getPeliculas()" style="html=1;verticalAlign=bottom;endArrow=block;curved=0;rounded=0;" edge="1" parent="1">
          <mxGeometry x="-0.0006" width="80" relative="1" as="geometry">
            <mxPoint x="445" y="220" as="sourcePoint" />
            <mxPoint x="799.5" y="220" as="targetPoint" />
            <mxPoint as="offset" />
          </mxGeometry>
        </mxCell>
        <mxCell id="zWUjRtRSciI2-0Wgb_t_-7" value="listadoPeliculas" style="html=1;verticalAlign=bottom;endArrow=open;dashed=1;endSize=8;curved=0;rounded=0;" edge="1" parent="1">
          <mxGeometry relative="1" as="geometry">
            <mxPoint x="795" y="260" as="sourcePoint" />
            <mxPoint x="445" y="260" as="targetPoint" />
          </mxGeometry>
        </mxCell>
        <mxCell id="zWUjRtRSciI2-0Wgb_t_-13" value="seleccionarPelicula(idPelicula: int)" style="html=1;verticalAlign=bottom;endArrow=block;curved=0;rounded=0;" edge="1" parent="1" source="zWUjRtRSciI2-0Wgb_t_-11">
          <mxGeometry x="-0.0006" width="80" relative="1" as="geometry">
            <mxPoint x="440" y="350" as="sourcePoint" />
            <mxPoint x="794.5" y="350" as="targetPoint" />
            <mxPoint as="offset" />
          </mxGeometry>
        </mxCell>
        <mxCell id="zWUjRtRSciI2-0Wgb_t_-14" value="peliculaDisponible" style="html=1;verticalAlign=bottom;endArrow=open;dashed=1;endSize=8;curved=0;rounded=0;" edge="1" parent="1" target="zWUjRtRSciI2-0Wgb_t_-11">
          <mxGeometry relative="1" as="geometry">
            <mxPoint x="790" y="390" as="sourcePoint" />
            <mxPoint x="440" y="390" as="targetPoint" />
          </mxGeometry>
        </mxCell>
        <mxCell id="zWUjRtRSciI2-0Wgb_t_-19" value="getDatosPeliculas(idPelicula: int)" style="html=1;verticalAlign=bottom;endArrow=block;curved=0;rounded=0;" edge="1" parent="1" source="zWUjRtRSciI2-0Wgb_t_-15">
          <mxGeometry x="-0.0006" width="80" relative="1" as="geometry">
            <mxPoint x="450" y="490" as="sourcePoint" />
            <mxPoint x="800" y="490" as="targetPoint" />
            <mxPoint as="offset" />
          </mxGeometry>
        </mxCell>
        <mxCell id="zWUjRtRSciI2-0Wgb_t_-20" value="datosPelicula[ ]" style="html=1;verticalAlign=bottom;endArrow=open;dashed=1;endSize=8;curved=0;rounded=0;entryX=0.5;entryY=0.75;entryDx=0;entryDy=0;entryPerimeter=0;" edge="1" parent="1" target="zWUjRtRSciI2-0Wgb_t_-15">
          <mxGeometry relative="1" as="geometry">
            <mxPoint x="795" y="530" as="sourcePoint" />
            <mxPoint x="450" y="530" as="targetPoint" />
          </mxGeometry>
        </mxCell>
        <mxCell id="zWUjRtRSciI2-0Wgb_t_-23" value="isCuentaExist" style="html=1;verticalAlign=bottom;endArrow=open;dashed=1;endSize=8;curved=0;rounded=0;entryX=0.5;entryY=0.75;entryDx=0;entryDy=0;entryPerimeter=0;" edge="1" parent="1">
          <mxGeometry relative="1" as="geometry">
            <mxPoint x="799" y="661" as="sourcePoint" />
            <mxPoint x="444" y="661" as="targetPoint" />
          </mxGeometry>
        </mxCell>
        <mxCell id="zWUjRtRSciI2-0Wgb_t_-24" value="getCuenta(DNI: String)" style="html=1;verticalAlign=bottom;endArrow=block;curved=0;rounded=0;" edge="1" parent="1">
          <mxGeometry x="-0.0006" width="80" relative="1" as="geometry">
            <mxPoint x="445" y="620" as="sourcePoint" />
            <mxPoint x="800" y="620" as="targetPoint" />
            <mxPoint as="offset" />
          </mxGeometry>
        </mxCell>
        <mxCell id="zWUjRtRSciI2-0Wgb_t_-25" value="" style="html=1;points=[[0,0,0,0,5],[0,1,0,0,-5],[1,0,0,0,5],[1,1,0,0,-5]];perimeter=orthogonalPerimeter;outlineConnect=0;targetShapes=umlLifeline;portConstraint=eastwest;newEdgeStyle={&quot;curved&quot;:0,&quot;rounded&quot;:0};" vertex="1" parent="1">
          <mxGeometry x="436" y="719" width="10" height="81" as="geometry" />
        </mxCell>
        <mxCell id="zWUjRtRSciI2-0Wgb_t_-26" value="" style="html=1;points=[[0,0,0,0,5],[0,1,0,0,-5],[1,0,0,0,5],[1,1,0,0,-5]];perimeter=orthogonalPerimeter;outlineConnect=0;targetShapes=umlLifeline;portConstraint=eastwest;newEdgeStyle={&quot;curved&quot;:0,&quot;rounded&quot;:0};" vertex="1" parent="1">
          <mxGeometry x="795" y="719" width="10" height="81" as="geometry" />
        </mxCell>
        <mxCell id="zWUjRtRSciI2-0Wgb_t_-27" value="cuentaCreada" style="html=1;verticalAlign=bottom;endArrow=open;dashed=1;endSize=8;curved=0;rounded=0;entryX=0.5;entryY=0.75;entryDx=0;entryDy=0;entryPerimeter=0;" edge="1" parent="1">
          <mxGeometry relative="1" as="geometry">
            <mxPoint x="798" y="781" as="sourcePoint" />
            <mxPoint x="443" y="781" as="targetPoint" />
          </mxGeometry>
        </mxCell>
        <mxCell id="zWUjRtRSciI2-0Wgb_t_-28" value="crearCuenta(cliente: Cliente)" style="html=1;verticalAlign=bottom;endArrow=block;curved=0;rounded=0;" edge="1" parent="1">
          <mxGeometry x="-0.0006" width="80" relative="1" as="geometry">
            <mxPoint x="444" y="740" as="sourcePoint" />
            <mxPoint x="799" y="740" as="targetPoint" />
            <mxPoint as="offset" />
          </mxGeometry>
        </mxCell>
        <mxCell id="zWUjRtRSciI2-0Wgb_t_-29" value="" style="html=1;points=[[0,0,0,0,5],[0,1,0,0,-5],[1,0,0,0,5],[1,1,0,0,-5]];perimeter=orthogonalPerimeter;outlineConnect=0;targetShapes=umlLifeline;portConstraint=eastwest;newEdgeStyle={&quot;curved&quot;:0,&quot;rounded&quot;:0};" vertex="1" parent="1">
          <mxGeometry x="436" y="833" width="10" height="89" as="geometry" />
        </mxCell>
        <mxCell id="zWUjRtRSciI2-0Wgb_t_-30" value="" style="html=1;points=[[0,0,0,0,5],[0,1,0,0,-5],[1,0,0,0,5],[1,1,0,0,-5]];perimeter=orthogonalPerimeter;outlineConnect=0;targetShapes=umlLifeline;portConstraint=eastwest;newEdgeStyle={&quot;curved&quot;:0,&quot;rounded&quot;:0};" vertex="1" parent="1">
          <mxGeometry x="796" y="833" width="10" height="89" as="geometry" />
        </mxCell>
        <mxCell id="zWUjRtRSciI2-0Wgb_t_-31" value="mensajeConfirmacion" style="html=1;verticalAlign=bottom;endArrow=open;dashed=1;endSize=8;curved=0;rounded=0;entryX=0.5;entryY=0.75;entryDx=0;entryDy=0;entryPerimeter=0;" edge="1" parent="1">
          <mxGeometry relative="1" as="geometry">
            <mxPoint x="799" y="898" as="sourcePoint" />
            <mxPoint x="444" y="898" as="targetPoint" />
          </mxGeometry>
        </mxCell>
        <mxCell id="zWUjRtRSciI2-0Wgb_t_-32" value="asignarPelicula(DNI: String, idPelicula: int)" style="html=1;verticalAlign=bottom;endArrow=block;curved=0;rounded=0;" edge="1" parent="1">
          <mxGeometry x="-0.0006" width="80" relative="1" as="geometry">
            <mxPoint x="445" y="857" as="sourcePoint" />
            <mxPoint x="800" y="857" as="targetPoint" />
            <mxPoint as="offset" />
          </mxGeometry>
        </mxCell>
        <mxCell id="zWUjRtRSciI2-0Wgb_t_-33" value="alt" style="shape=umlFrame;whiteSpace=wrap;html=1;pointerEvents=0;" vertex="1" parent="1">
          <mxGeometry x="200" y="460" width="770" height="600" as="geometry" />
        </mxCell>
        <mxCell id="zWUjRtRSciI2-0Wgb_t_-35" value="[peliculaDisponible=true]" style="text;html=1;align=center;verticalAlign=middle;resizable=0;points=[];autosize=1;strokeColor=none;fillColor=none;" vertex="1" parent="1">
          <mxGeometry x="200" y="500" width="150" height="30" as="geometry" />
        </mxCell>
        <mxCell id="zWUjRtRSciI2-0Wgb_t_-36" value="" style="html=1;points=[[0,0,0,0,5],[0,1,0,0,-5],[1,0,0,0,5],[1,1,0,0,-5]];perimeter=orthogonalPerimeter;outlineConnect=0;targetShapes=umlLifeline;portConstraint=eastwest;newEdgeStyle={&quot;curved&quot;:0,&quot;rounded&quot;:0};" vertex="1" parent="1">
          <mxGeometry x="436" y="955" width="10" height="90" as="geometry" />
        </mxCell>
        <mxCell id="zWUjRtRSciI2-0Wgb_t_-37" value="" style="html=1;points=[[0,0,0,0,5],[0,1,0,0,-5],[1,0,0,0,5],[1,1,0,0,-5]];perimeter=orthogonalPerimeter;outlineConnect=0;targetShapes=umlLifeline;portConstraint=eastwest;newEdgeStyle={&quot;curved&quot;:0,&quot;rounded&quot;:0};" vertex="1" parent="1">
          <mxGeometry x="796" y="955" width="10" height="90" as="geometry" />
        </mxCell>
        <mxCell id="zWUjRtRSciI2-0Wgb_t_-38" value="mensajeError" style="html=1;verticalAlign=bottom;endArrow=open;dashed=1;endSize=8;curved=0;rounded=0;entryX=0.5;entryY=0.75;entryDx=0;entryDy=0;entryPerimeter=0;" edge="1" parent="1">
          <mxGeometry relative="1" as="geometry">
            <mxPoint x="799" y="1018" as="sourcePoint" />
            <mxPoint x="444" y="1018" as="targetPoint" />
          </mxGeometry>
        </mxCell>
        <mxCell id="zWUjRtRSciI2-0Wgb_t_-39" value="errorMensaje(DNI: String)" style="html=1;verticalAlign=bottom;endArrow=block;curved=0;rounded=0;" edge="1" parent="1">
          <mxGeometry x="-0.0006" width="80" relative="1" as="geometry">
            <mxPoint x="445" y="977" as="sourcePoint" />
            <mxPoint x="800" y="977" as="targetPoint" />
            <mxPoint as="offset" />
          </mxGeometry>
        </mxCell>
        <mxCell id="zWUjRtRSciI2-0Wgb_t_-40" value="" style="endArrow=none;dashed=1;html=1;rounded=0;exitX=-0.001;exitY=0.797;exitDx=0;exitDy=0;exitPerimeter=0;entryX=1.004;entryY=0.797;entryDx=0;entryDy=0;entryPerimeter=0;" edge="1" parent="1" source="zWUjRtRSciI2-0Wgb_t_-33" target="zWUjRtRSciI2-0Wgb_t_-33">
          <mxGeometry width="50" height="50" relative="1" as="geometry">
            <mxPoint x="530" y="810" as="sourcePoint" />
            <mxPoint x="580" y="760" as="targetPoint" />
          </mxGeometry>
        </mxCell>
        <mxCell id="zWUjRtRSciI2-0Wgb_t_-41" value="[peliculaDisponible=false]" style="text;html=1;align=center;verticalAlign=middle;resizable=0;points=[];autosize=1;strokeColor=none;fillColor=none;" vertex="1" parent="1">
          <mxGeometry x="195" y="950" width="160" height="30" as="geometry" />
        </mxCell>
        <mxCell id="zWUjRtRSciI2-0Wgb_t_-42" value="opt" style="shape=umlFrame;whiteSpace=wrap;html=1;pointerEvents=0;" vertex="1" parent="1">
          <mxGeometry x="210" y="690" width="740" height="130" as="geometry" />
        </mxCell>
        <mxCell id="zWUjRtRSciI2-0Wgb_t_-43" value="[isCuentaExist=false]" style="text;html=1;strokeColor=none;fillColor=none;align=center;verticalAlign=middle;whiteSpace=wrap;rounded=0;" vertex="1" parent="1">
          <mxGeometry x="240" y="719" width="60" height="30" as="geometry" />
        </mxCell>
      </root>
    </mxGraphModel>
  </diagram>
</mxfile>
